<svg width="68" height="53" viewBox="0 0 68 53" fill="none" xmlns="http://www.w3.org/2000/svg">
<path fill-rule="evenodd" clip-rule="evenodd" d="M2.09014 2.33341C-0.287603 4.97853 -0.372699 46.7028 1.99317 50.1031C3.52787 52.3098 3.6387 52.3178 33.9982 52.3178C62.2551 52.3178 64.5814 52.1853 66.1003 50.4956C67.5222 48.9135 67.7379 45.7115 67.7379 26.1585C67.7379 7.01792 67.5044 3.4074 66.1834 2.07636C64.8367 0.721423 60.5403 0.511208 34.1783 0.511208C5.9353 0.511208 3.60901 0.643713 2.09014 2.33341ZM17.168 9.97588C20.4947 12.4417 23.4374 14.4591 23.7085 14.4591C23.9787 14.4591 24.2003 12.4417 24.2003 9.97588C24.2003 5.85825 24.4022 5.49261 26.674 5.49261C29.1072 5.49261 29.1478 5.62312 29.1478 13.4947V21.4959L17.5212 21.2159L5.89473 20.935V18.4443C5.89473 16.2056 6.37167 15.9028 10.6146 15.4554L15.3335 14.9573L10.6799 11.4703C4.91909 7.15341 4.22447 5.49261 8.17749 5.49261C10.108 5.49261 13.1972 7.03286 17.168 9.97588ZM45.1725 9.9161L45.4743 14.3386L51.3361 9.9161C55.0437 7.11854 58.2259 5.49261 59.9941 5.49261C64.1104 5.49261 63.397 7.51606 57.8885 11.4703L53.0311 14.9573L57.6639 15.4554C61.8514 15.9057 62.3264 16.2196 62.6123 18.7252L62.928 21.4979L51.2332 21.2159L39.5374 20.935L39.2485 13.2138L38.9595 5.49261H41.9151C44.7075 5.49261 44.8876 5.7377 45.1725 9.9161ZM29.1478 39.3662C29.1478 47.2039 29.1062 47.3364 26.674 47.3364C24.4022 47.3364 24.2003 46.9708 24.2003 42.8531C24.2003 40.3874 23.946 38.3699 23.6353 38.3699C23.3246 38.3699 20.2631 40.3874 16.8306 42.8531C10.6324 47.3065 5.39999 48.7302 5.39999 45.9635C5.39999 45.2084 7.90834 42.8541 10.9748 40.7331L16.5496 36.8755L10.9748 36.5766C5.79875 36.2996 5.39999 36.1033 5.39999 33.8368V31.3959H17.2739H29.1478V39.3662ZM62.7904 33.8348C62.7904 36.0745 62.3659 36.2976 57.5956 36.5746L52.4008 36.8755L57.5956 40.7052C60.4532 42.8113 62.7904 45.1645 62.7904 45.9356C62.7904 48.7173 57.6659 47.3095 51.4004 42.8083L45.0973 38.2802L44.7916 42.5592C44.5165 46.3959 44.2038 46.8711 41.7638 47.1531L39.0427 47.4689V39.4319V31.3959H50.9165H62.7904V33.8348Z" fill="black"/>
</svg>
